<mxfile host="65bd71144e">
    <diagram id="O9XuDP-8FX_e6uJgRn8E" name="Page-1">
        <mxGraphModel dx="1122" dy="233" grid="1" gridSize="10" guides="1" tooltips="1" connect="1" arrows="1" fold="1" page="1" pageScale="1" pageWidth="100" pageHeight="100" math="0" shadow="0">
            <root>
                <mxCell id="0"/>
                <mxCell id="1" parent="0"/>
                <mxCell id="2" value="" style="shape=umlLifeline;participant=umlActor;perimeter=lifelinePerimeter;whiteSpace=wrap;html=1;container=1;collapsible=0;recursiveResize=0;verticalAlign=top;spacingTop=36;outlineConnect=0;strokeWidth=2;fontFamily=仿宋;" vertex="1" parent="1">
                    <mxGeometry x="-130" y="260" width="20" height="570" as="geometry"/>
                </mxCell>
                <mxCell id="3" value="" style="html=1;points=[];perimeter=orthogonalPerimeter;strokeWidth=2;fontFamily=仿宋;" vertex="1" parent="2">
                    <mxGeometry x="5" y="80" width="10" height="460" as="geometry"/>
                </mxCell>
                <mxCell id="4" value="保存采购意向" style="html=1;verticalAlign=bottom;startArrow=oval;startFill=1;endArrow=block;startSize=8;strokeColor=#fff2cc;strokeWidth=2;fontFamily=仿宋;" edge="1" parent="2" target="6">
                    <mxGeometry width="60" relative="1" as="geometry">
                        <mxPoint x="10" y="80" as="sourcePoint"/>
                        <mxPoint x="220" y="80" as="targetPoint"/>
                    </mxGeometry>
                </mxCell>
                <mxCell id="5" value="采购意向查询" style="html=1;verticalAlign=bottom;endArrow=block;strokeColor=#fff2cc;strokeWidth=2;fontFamily=仿宋;curved=1;" edge="1" parent="2" target="6">
                    <mxGeometry width="80" relative="1" as="geometry">
                        <mxPoint x="10" y="330" as="sourcePoint"/>
                        <mxPoint x="90" y="330" as="targetPoint"/>
                    </mxGeometry>
                </mxCell>
                <mxCell id="18" value="删除采购意向" style="html=1;verticalAlign=bottom;startArrow=oval;startFill=1;endArrow=block;startSize=8;" edge="1" parent="2" target="6">
                    <mxGeometry width="60" relative="1" as="geometry">
                        <mxPoint x="10" y="460" as="sourcePoint"/>
                        <mxPoint x="70" y="460" as="targetPoint"/>
                    </mxGeometry>
                </mxCell>
                <mxCell id="6" value="采购意向系统" style="shape=umlLifeline;perimeter=lifelinePerimeter;whiteSpace=wrap;html=1;container=1;collapsible=0;recursiveResize=0;outlineConnect=0;strokeWidth=2;fontFamily=仿宋;" vertex="1" parent="1">
                    <mxGeometry x="-18" y="260" width="100" height="570" as="geometry"/>
                </mxCell>
                <mxCell id="7" value="" style="html=1;points=[];perimeter=orthogonalPerimeter;strokeWidth=2;fontFamily=仿宋;" vertex="1" parent="6">
                    <mxGeometry x="45" y="80" width="10" height="170" as="geometry"/>
                </mxCell>
                <mxCell id="8" value="" style="html=1;points=[];perimeter=orthogonalPerimeter;strokeWidth=2;fontFamily=仿宋;" vertex="1" parent="6">
                    <mxGeometry x="45" y="330" width="10" height="80" as="geometry"/>
                </mxCell>
                <mxCell id="9" value="保存推送任务" style="html=1;verticalAlign=bottom;startArrow=oval;startFill=1;endArrow=block;startSize=8;strokeColor=#fff2cc;strokeWidth=2;fontFamily=仿宋;" edge="1" parent="6" target="11">
                    <mxGeometry width="60" relative="1" as="geometry">
                        <mxPoint x="48" y="130" as="sourcePoint"/>
                        <mxPoint x="108" y="130" as="targetPoint"/>
                    </mxGeometry>
                </mxCell>
                <mxCell id="17" value="" style="html=1;points=[];perimeter=orthogonalPerimeter;strokeWidth=2;fontFamily=仿宋;" vertex="1" parent="6">
                    <mxGeometry x="45" y="460" width="10" height="80" as="geometry"/>
                </mxCell>
                <mxCell id="10" value="定时推送任务" style="ellipse;shape=umlControl;whiteSpace=wrap;html=1;strokeWidth=2;fontFamily=仿宋;" vertex="1" parent="1">
                    <mxGeometry x="330" y="385" width="70" height="80" as="geometry"/>
                </mxCell>
                <mxCell id="11" value="推送系统" style="shape=umlLifeline;perimeter=lifelinePerimeter;whiteSpace=wrap;html=1;container=1;collapsible=0;recursiveResize=0;outlineConnect=0;strokeWidth=2;fontFamily=仿宋;" vertex="1" parent="1">
                    <mxGeometry x="162" y="260" width="170" height="250" as="geometry"/>
                </mxCell>
                <mxCell id="12" value="" style="html=1;points=[];perimeter=orthogonalPerimeter;strokeWidth=2;fontFamily=仿宋;" vertex="1" parent="11">
                    <mxGeometry x="80" y="130" width="10" height="80" as="geometry"/>
                </mxCell>
                <mxCell id="13" value="dispatch" style="html=1;verticalAlign=bottom;endArrow=block;entryX=-0.047;entryY=0.56;strokeColor=#fff2cc;strokeWidth=2;fontFamily=仿宋;curved=1;entryDx=0;entryDy=0;entryPerimeter=0;" edge="1" parent="11" target="10">
                    <mxGeometry relative="1" as="geometry">
                        <mxPoint x="90" y="169.57999999999998" as="sourcePoint"/>
                        <mxPoint x="160" y="169.5800000000001" as="targetPoint"/>
                    </mxGeometry>
                </mxCell>
                <mxCell id="14" value="保存成功" style="html=1;verticalAlign=bottom;endArrow=open;dashed=1;endSize=8;strokeColor=#fff2cc;strokeWidth=2;fontFamily=仿宋;curved=1;" edge="1" parent="11" target="6">
                    <mxGeometry relative="1" as="geometry">
                        <mxPoint x="88" y="210" as="sourcePoint"/>
                        <mxPoint x="8" y="210" as="targetPoint"/>
                    </mxGeometry>
                </mxCell>
                <mxCell id="15" value="保存成功" style="html=1;verticalAlign=bottom;endArrow=open;dashed=1;endSize=8;strokeColor=#fff2cc;strokeWidth=2;fontFamily=仿宋;curved=1;" edge="1" parent="1" target="2">
                    <mxGeometry relative="1" as="geometry">
                        <mxPoint x="30" y="510" as="sourcePoint"/>
                        <mxPoint x="-50" y="510" as="targetPoint"/>
                    </mxGeometry>
                </mxCell>
                <mxCell id="16" value="返回查询结果" style="html=1;verticalAlign=bottom;endArrow=open;dashed=1;endSize=8;strokeColor=#fff2cc;strokeWidth=2;fontFamily=仿宋;curved=1;" edge="1" parent="1" target="2">
                    <mxGeometry relative="1" as="geometry">
                        <mxPoint x="30" y="670" as="sourcePoint"/>
                        <mxPoint x="-50" y="670" as="targetPoint"/>
                    </mxGeometry>
                </mxCell>
                <mxCell id="19" value="return" style="html=1;verticalAlign=bottom;endArrow=open;dashed=1;endSize=8;entryX=0.7;entryY=1;entryDx=0;entryDy=0;entryPerimeter=0;" edge="1" parent="1" target="3">
                    <mxGeometry relative="1" as="geometry">
                        <mxPoint x="30" y="800" as="sourcePoint"/>
                        <mxPoint x="-50" y="800" as="targetPoint"/>
                    </mxGeometry>
                </mxCell>
            </root>
        </mxGraphModel>
    </diagram>
</mxfile>